<svg width="182" height="135" viewBox="0 0 182 135" fill="none" xmlns="http://www.w3.org/2000/svg">
<g clip-path="url(#clip0_106_82)">
<path d="M47.21 10.0701L41.53 37.9201H79.67L60.33 134.23H95.45L114.79 37.9201L120.38 10.0701H47.21Z" fill="url(#paint0_linear_106_82)"/>
<path d="M173.97 0L168.3 27.83H130.37L111.05 124.08H75.95L86.88 69.61L91.64 45.91L95.27 27.83H95.24L100.83 0H173.97Z" fill="url(#paint1_linear_106_82)"/>
<path d="M181.82 69.0901V92.8101L123.52 116.68L128.7 90.8401L152.85 80.9501L181.82 69.0901Z" fill="url(#paint2_linear_106_82)"/>
<path d="M181.82 69.0899V92.8099L152.85 80.9499L132.37 72.5699L136.77 50.6499L181.82 69.0899Z" fill="url(#paint3_linear_106_82)"/>
<path d="M52.63 103.94L48.23 125.85L0 106.11V82.3899L28.97 94.2499L52.63 103.94Z" fill="url(#paint4_linear_106_82)"/>
<path d="M62.05 56.99L56.87 82.83L28.97 94.25L0 106.11V82.39L62.05 56.99Z" fill="url(#paint5_linear_106_82)"/>
</g>
<defs>
<linearGradient id="paint0_linear_106_82" x1="41.53" y1="72.1501" x2="120.43" y2="72.1501" gradientUnits="userSpaceOnUse">
<stop stop-color="#37A48D"/>
<stop offset="1" stop-color="#26255C"/>
</linearGradient>
<linearGradient id="paint1_linear_106_82" x1="75.95" y1="62.04" x2="173.97" y2="62.04" gradientUnits="userSpaceOnUse">
<stop stop-color="#26255C"/>
<stop offset="0.49" stop-color="#1A5779"/>
<stop offset="1" stop-color="#571C56"/>
</linearGradient>
<linearGradient id="paint2_linear_106_82" x1="123.52" y1="92.8901" x2="181.82" y2="92.8901" gradientUnits="userSpaceOnUse">
<stop stop-color="#26255C"/>
<stop offset="0.49" stop-color="#1A5779"/>
<stop offset="1" stop-color="#571C56"/>
</linearGradient>
<linearGradient id="paint3_linear_106_82" x1="132.37" y1="71.7299" x2="181.82" y2="71.7299" gradientUnits="userSpaceOnUse">
<stop stop-color="#37A48D"/>
<stop offset="1" stop-color="#26255C"/>
</linearGradient>
<linearGradient id="paint4_linear_106_82" x1="0" y1="104.12" x2="52.63" y2="104.12" gradientUnits="userSpaceOnUse">
<stop stop-color="#26255C"/>
<stop offset="1" stop-color="#37A48D"/>
</linearGradient>
<linearGradient id="paint5_linear_106_82" x1="0" y1="81.55" x2="62.05" y2="81.55" gradientUnits="userSpaceOnUse">
<stop stop-color="#26255C"/>
<stop offset="0.49" stop-color="#1A5779"/>
<stop offset="1" stop-color="#571C56"/>
</linearGradient>
<clipPath id="clip0_106_82">
<rect width="181.82" height="134.23" fill="white"/>
</clipPath>
</defs>
</svg>
